# File created by Blade
# Date/Time:  Thu Jan 22 19:24:19 2015
# Frame Rate: 120.000 fps
#------------------------------------------------------
:FULLY-SPECIFIED
:DEGREES
3066
root -2.146667 33.162897 -4.462477 6.391960 -6.290800 3.742167
RightUpLeg -16.433199 -1.550850 0.566162
RightLeg 33.120978 -0.000000 -0.000000
RightFoot -23.589112 -5.181224 3.954647
RightToeBase -3.197069 -0.000000 0.000000
LeftUpLeg -1.959536 1.393959 -4.975841
LeftLeg 0.795019 -0.000000 -0.000000
LeftFoot -9.890706 5.030973 -13.434221
LeftToeBase 8.207281 -0.000000 -0.000000
Spine -4.047733 -4.071847 -0.522024
RightShoulder -18.149128 -13.568251 -24.214244
RightArm 17.510107 28.079624 47.721431
RightForeArm -9.614826 -0.000000 20.698686
RightHand 14.948232 0.000000 0.663465
RightHandThumb1 -24.326973 -0.000000 -32.862282
LeftShoulder -22.869147 3.926090 28.700587
LeftArm 12.445832 -29.911198 -45.727178
LeftForeArm 11.563805 -0.000000 3.325550
LeftHand 0.721266 -0.000000 1.233984
LeftHandThumb1 -26.253704 0.000000 33.147579
Head -10.280492 8.025474 -6.597300
3067
root -2.165567 33.163881 -4.446368 6.327802 -6.146298 3.742259
RightUpLeg -16.007356 -1.645974 0.735833
RightLeg 32.316158 -0.000000 -0.000000
RightFoot -22.902158 -4.127481 5.089181
RightToeBase -3.898380 -0.000000 0.000000
LeftUpLeg -1.892796 1.461057 -4.936407
LeftLeg 0.842884 -0.000000 -0.000000
LeftFoot -9.882041 4.865968 -13.445875
LeftToeBase 8.229349 -0.000000 -0.000000
Spine -4.134527 -4.185082 -0.489149
RightShoulder -18.125007 -13.609220 -24.239032
RightArm 17.399967 28.191026 47.670421
RightForeArm -9.624867 0.000000 20.636369
RightHand 14.967816 -0.000000 0.693000
RightHandThumb1 -24.326973 -0.000000 -32.862282
LeftShoulder -22.802918 3.893544 28.724206
LeftArm 12.515082 -29.776221 -45.776070
LeftForeArm 11.605609 -0.000000 3.326953
LeftHand 0.841465 -0.000000 1.211526
LeftHandThumb1 -26.253704 0.000000 33.147579
Head -9.918134 7.999379 -6.676029
3068
root -2.186826 33.162014 -4.426764 6.260193 -6.009170 3.773030
RightUpLeg -15.505290 -1.766561 0.863593
RightLeg 31.310451 -0.000000 -0.000000
RightFoot -21.969245 -3.293612 5.473730
RightToeBase -3.836100 -0.000000 0.000000
LeftUpLeg -1.805953 1.390338 -4.915833
LeftLeg 0.866330 -0.000000 -0.000000
LeftFoot -9.894727 4.813148 -13.496640
LeftToeBase 8.210197 -0.000000 -0.000000
Spine -4.230144 -4.271674 -0.507590
RightShoulder -18.166577 -13.684639 -24.239620
RightArm 17.392610 28.280963 47.641891
RightForeArm -9.461205 -0.000000 20.503928
RightHand 14.952733 0.000000 0.725225
RightHandThumb1 -24.326973 -0.000000 -32.862282
LeftShoulder -22.718083 3.857784 28.751141
LeftArm 12.578525 -29.630008 -45.789741
LeftForeArm 11.706981 -0.000000 3.321213
LeftHand 0.884511 -0.000000 1.143507
LeftHandThumb1 -26.253704 0.000000 33.147579
Head -9.570594 8.004809 -6.731645
3069
root -2.210108 33.157420 -4.404716 6.187466 -5.884682 3.833314
RightUpLeg -14.955661 -1.995098 0.987295
RightLeg 30.183908 -0.000000 -0.000000
RightFoot -21.030632 -3.393020 3.592227
RightToeBase -1.662675 -0.000000 0.000000
LeftUpLeg -1.703007 1.255772 -4.920460
LeftLeg 0.872269 -0.000000 -0.000000
LeftFoot -9.927451 4.807710 -13.616526
LeftToeBase 8.245111 -0.000000 -0.000000
Spine -4.329867 -4.355674 -0.565149
RightShoulder -18.171142 -13.766865 -24.235923
RightArm 17.331835 28.426844 47.605762
RightForeArm -9.432503 -0.000000 20.413285
RightHand 14.990150 0.000000 0.798473
RightHandThumb1 -24.326973 -0.000000 -32.862282
LeftShoulder -22.650119 3.852049 28.767590
LeftArm 12.678124 -29.518878 -45.808818
LeftForeArm 11.830131 -0.000000 3.321501
LeftHand 0.922428 -0.000000 1.044520
LeftHandThumb1 -26.253704 0.000000 33.147579
Head -9.221899 7.967799 -6.754271
3070
root -2.235155 33.150917 -4.387074 6.144567 -5.782560 3.904557
RightUpLeg -14.418359 -2.220189 1.104325
RightLeg 28.998261 -0.000000 -0.000000
RightFoot -20.236166 -4.149740 1.274171
RightToeBase 0.860529 -0.000000 -0.000000
LeftUpLeg -1.674456 1.262262 -4.931938
LeftLeg 0.952915 -0.000000 -0.000000
LeftFoot -9.995306 4.653681 -13.765961
LeftToeBase 8.389225 -0.000000 -0.000000
Spine -4.447298 -4.405668 -0.644434
RightShoulder -18.201239 -13.796019 -24.249391
RightArm 17.223272 28.490760 47.551019
RightForeArm -9.455137 0.000000 20.335076
RightHand 15.083273 0.000000 0.665691
RightHandThumb1 -24.326973 -0.000000 -32.862282
LeftShoulder -22.593413 3.758849 28.815062
LeftArm 12.730968 -29.295911 -45.775165
LeftForeArm 11.894148 -0.000000 3.288381
LeftHand 0.992650 -0.000000 0.954751
LeftHandThumb1 -26.253704 0.000000 33.147579
Head -8.911699 7.925634 -6.778037
3071
root -2.260396 33.142943 -4.367751 6.095559 -5.717851 4.002925
RightUpLeg -13.867258 -2.391306 1.171756
RightLeg 27.777171 -0.000000 -0.000000
RightFoot -19.691674 -5.364013 0.239370
RightToeBase 1.378530 -0.000000 -0.000000
LeftUpLeg -1.721034 1.734121 -4.978093
LeftLeg 1.208957 -0.000000 -0.000000
LeftFoot -10.000101 4.077435 -13.719421
LeftToeBase 8.346733 -0.000000 -0.000000
Spine -4.565010 -4.414771 -0.767205
RightShoulder -18.236086 -13.885187 -24.229948
RightArm 17.170391 28.585002 47.495355
RightForeArm -9.311605 0.000000 20.268147
RightHand 15.064091 -0.000000 0.673863
RightHandThumb1 -24.326973 -0.000000 -32.862282
LeftShoulder -22.515376 3.750783 28.824614
LeftArm 12.819687 -29.196020 -45.751747
LeftForeArm 11.999395 0.000000 3.292928
LeftHand 0.974878 -0.000000 0.948884
LeftHandThumb1 -26.253704 0.000000 33.147579
Head -8.590435 7.836129 -6.775467
3072
root -2.287053 33.133668 -4.347250 6.032984 -5.693045 4.117077
RightUpLeg -13.326867 -2.425748 1.188817
RightLeg 26.624548 -0.000000 -0.000000
RightFoot -19.857665 -6.549755 1.297689
RightToeBase 4.541671 -0.000000 -0.000000
LeftUpLeg -1.680534 1.836798 -5.034555
LeftLeg 1.318733 -0.000000 -0.000000
LeftFoot -10.042313 3.874684 -13.827313
LeftToeBase 8.303422 -0.000000 -0.000000
Spine -4.666596 -4.397575 -0.914099
RightShoulder -18.247186 -13.885883 -24.250978
RightArm 17.037515 28.604395 47.416601
RightForeArm -9.230416 -0.000000 20.202456
RightHand 15.110409 -0.000000 0.623125
RightHandThumb1 -24.326973 -0.000000 -32.862282
LeftShoulder -22.489715 3.824379 28.809575
LeftArm 13.019229 -29.200719 -45.804841
LeftForeArm 12.205098 -0.000000 3.304178
LeftHand 0.913054 -0.000000 0.846288
LeftHandThumb1 -26.253704 0.000000 33.147579
Head -8.309874 7.791484 -6.771608
3073
root -2.315483 33.124417 -4.333702 6.002719 -5.677277 4.248931
RightUpLeg -12.829506 -2.356678 1.178030
RightLeg 25.564601 -0.000000 -0.000000
RightFoot -20.099464 -7.387172 1.787353
RightToeBase 4.494141 -0.000000 -0.000000
LeftUpLeg -1.680264 1.736652 -5.101367
LeftLeg 1.426484 -0.000000 -0.000000
LeftFoot -10.137058 3.878619 -14.037659
LeftToeBase 8.301372 -0.000000 -0.000000
Spine -4.783434 -4.369832 -1.083418
RightShoulder -18.288959 -13.941696 -24.247742
RightArm 16.992115 28.742808 47.424359
RightForeArm -9.305748 -0.000000 20.166639
RightHand 15.086761 -0.000000 0.629134
RightHandThumb1 -24.326973 -0.000000 -32.862282
LeftShoulder -22.435940 3.777960 28.825313
LeftArm 13.073263 -29.132430 -45.774166
LeftForeArm 12.320335 0.000000 3.334214
LeftHand 0.967253 -0.000000 0.866017
LeftHandThumb1 -26.253704 0.000000 33.147579
Head -8.071611 7.772535 -6.769410
3074
root -2.347344 33.114309 -4.314809 5.942318 -5.708090 4.371113
RightUpLeg -12.282978 -2.255016 1.187898
RightLeg 24.569686 -0.000000 -0.000000
RightFoot -19.941131 -7.856850 0.777495
RightToeBase 4.311720 -0.000000 -0.000000
LeftUpLeg -1.634239 1.745072 -5.157834
LeftLeg 1.529866 -0.000000 -0.000000
LeftFoot -10.237390 3.824986 -14.217585
LeftToeBase 8.380215 -0.000000 -0.000000
Spine -4.870036 -4.322777 -1.254005
RightShoulder -18.301653 -13.978961 -24.235925
RightArm 16.906582 28.780332 47.360783
RightForeArm -9.222808 0.000000 20.161415
RightHand 15.086569 -0.000000 0.525770
RightHandThumb1 -24.326973 -0.000000 -32.862282
LeftShoulder -22.408127 3.723672 28.853562
LeftArm 13.085439 -28.999571 -45.704715
LeftForeArm 12.351989 -0.000000 3.346995
LeftHand 0.946796 0.000000 0.871376
LeftHandThumb1 -26.253704 0.000000 33.147579
Head -7.850794 7.747289 -6.759836
3075
root -2.380196 33.105923 -4.303540 5.910942 -5.756506 4.478592
RightUpLeg -11.823849 -2.153865 1.205620
RightLeg 23.723184 -0.000000 -0.000000
RightFoot -19.893348 -8.060811 0.058230
RightToeBase 5.920852 -0.000000 -0.000000
LeftUpLeg -1.666192 1.826161 -5.199246
LeftLeg 1.715350 -0.000000 -0.000000
LeftFoot -10.350113 3.711517 -14.355598
LeftToeBase 8.406871 -0.000000 -0.000000
Spine -4.958092 -4.304972 -1.392288
RightShoulder -18.296369 -14.007486 -24.253956
RightArm 16.897922 28.909206 47.393540
RightForeArm -9.179358 -0.000000 20.161930
RightHand 15.070335 -0.000000 0.621867
RightHandThumb1 -24.326973 -0.000000 -32.862282
LeftShoulder -22.423253 3.717959 28.850910
LeftArm 13.070256 -28.948191 -45.667557
LeftForeArm 12.401751 -0.000000 3.447163
LeftHand 0.911078 -0.000000 0.943742
LeftHandThumb1 -26.253704 0.000000 33.147579
Head -7.685843 7.799694 -6.798856
